<mxfile host="app.diagrams.net" modified="2021-06-23T15:23:47.079Z" agent="5.0 (Windows NT 10.0; Win64; x64) AppleWebKit/537.36 (KHTML, like Gecko) Chrome/91.0.4472.77 Safari/537.36" etag="Gkp3G0Qs65bHdWumTBfm" version="14.8.0" type="github">
  <diagram id="4IMuSAYhuIsIMY2SwUR4" name="第 1 页">
    <mxGraphModel dx="1422" dy="762" grid="1" gridSize="10" guides="1" tooltips="1" connect="1" arrows="1" fold="1" page="1" pageScale="1" pageWidth="827" pageHeight="1169" math="0" shadow="0">
      <root>
        <mxCell id="0" />
        <mxCell id="1" parent="0" />
        <mxCell id="s-ZQerYgWQEZpEDtXm9X-39" value="" style="shape=table;startSize=0;container=1;collapsible=0;childLayout=tableLayout;" vertex="1" parent="1">
          <mxGeometry x="80" y="840" width="80" height="80" as="geometry" />
        </mxCell>
        <mxCell id="s-ZQerYgWQEZpEDtXm9X-40" value="" style="shape=partialRectangle;collapsible=0;dropTarget=0;pointerEvents=0;fillColor=none;top=0;left=0;bottom=0;right=0;points=[[0,0.5],[1,0.5]];portConstraint=eastwest;" vertex="1" parent="s-ZQerYgWQEZpEDtXm9X-39">
          <mxGeometry width="80" height="40" as="geometry" />
        </mxCell>
        <mxCell id="s-ZQerYgWQEZpEDtXm9X-41" value="&lt;font style=&quot;font-size: 14px&quot;&gt;item&lt;/font&gt;" style="shape=partialRectangle;html=1;whiteSpace=wrap;connectable=0;overflow=hidden;fillColor=none;top=0;left=0;bottom=0;right=0;" vertex="1" parent="s-ZQerYgWQEZpEDtXm9X-40">
          <mxGeometry width="80" height="40" as="geometry" />
        </mxCell>
        <mxCell id="s-ZQerYgWQEZpEDtXm9X-42" value="" style="shape=partialRectangle;collapsible=0;dropTarget=0;pointerEvents=0;fillColor=none;top=0;left=0;bottom=0;right=0;points=[[0,0.5],[1,0.5]];portConstraint=eastwest;" vertex="1" parent="s-ZQerYgWQEZpEDtXm9X-39">
          <mxGeometry y="40" width="80" height="40" as="geometry" />
        </mxCell>
        <mxCell id="s-ZQerYgWQEZpEDtXm9X-43" value="&lt;font style=&quot;font-size: 14px&quot;&gt;next&lt;/font&gt;" style="shape=partialRectangle;html=1;whiteSpace=wrap;connectable=0;overflow=hidden;fillColor=none;top=0;left=0;bottom=0;right=0;" vertex="1" parent="s-ZQerYgWQEZpEDtXm9X-42">
          <mxGeometry width="80" height="40" as="geometry" />
        </mxCell>
        <mxCell id="s-ZQerYgWQEZpEDtXm9X-62" value="" style="shape=table;startSize=0;container=1;collapsible=0;childLayout=tableLayout;" vertex="1" parent="1">
          <mxGeometry x="720" y="720" width="80" height="80" as="geometry" />
        </mxCell>
        <mxCell id="s-ZQerYgWQEZpEDtXm9X-63" value="" style="shape=partialRectangle;collapsible=0;dropTarget=0;pointerEvents=0;fillColor=none;top=0;left=0;bottom=0;right=0;points=[[0,0.5],[1,0.5]];portConstraint=eastwest;" vertex="1" parent="s-ZQerYgWQEZpEDtXm9X-62">
          <mxGeometry width="80" height="40" as="geometry" />
        </mxCell>
        <mxCell id="s-ZQerYgWQEZpEDtXm9X-64" value="&lt;font style=&quot;font-size: 14px&quot;&gt;item&lt;/font&gt;" style="shape=partialRectangle;html=1;whiteSpace=wrap;connectable=0;overflow=hidden;fillColor=none;top=0;left=0;bottom=0;right=0;" vertex="1" parent="s-ZQerYgWQEZpEDtXm9X-63">
          <mxGeometry width="80" height="40" as="geometry" />
        </mxCell>
        <mxCell id="s-ZQerYgWQEZpEDtXm9X-65" value="" style="shape=partialRectangle;collapsible=0;dropTarget=0;pointerEvents=0;fillColor=none;top=0;left=0;bottom=0;right=0;points=[[0,0.5],[1,0.5]];portConstraint=eastwest;" vertex="1" parent="s-ZQerYgWQEZpEDtXm9X-62">
          <mxGeometry y="40" width="80" height="40" as="geometry" />
        </mxCell>
        <mxCell id="s-ZQerYgWQEZpEDtXm9X-66" value="&lt;font style=&quot;font-size: 14px&quot;&gt;next&lt;/font&gt;" style="shape=partialRectangle;html=1;whiteSpace=wrap;connectable=0;overflow=hidden;fillColor=none;top=0;left=0;bottom=0;right=0;" vertex="1" parent="s-ZQerYgWQEZpEDtXm9X-65">
          <mxGeometry width="80" height="40" as="geometry" />
        </mxCell>
        <mxCell id="s-ZQerYgWQEZpEDtXm9X-67" value="" style="shape=table;startSize=0;container=1;collapsible=0;childLayout=tableLayout;" vertex="1" parent="1">
          <mxGeometry x="560" y="640" width="80" height="80" as="geometry" />
        </mxCell>
        <mxCell id="s-ZQerYgWQEZpEDtXm9X-68" value="" style="shape=partialRectangle;collapsible=0;dropTarget=0;pointerEvents=0;fillColor=none;top=0;left=0;bottom=0;right=0;points=[[0,0.5],[1,0.5]];portConstraint=eastwest;" vertex="1" parent="s-ZQerYgWQEZpEDtXm9X-67">
          <mxGeometry width="80" height="40" as="geometry" />
        </mxCell>
        <mxCell id="s-ZQerYgWQEZpEDtXm9X-69" value="&lt;font style=&quot;font-size: 14px&quot;&gt;item&lt;/font&gt;" style="shape=partialRectangle;html=1;whiteSpace=wrap;connectable=0;overflow=hidden;fillColor=none;top=0;left=0;bottom=0;right=0;" vertex="1" parent="s-ZQerYgWQEZpEDtXm9X-68">
          <mxGeometry width="80" height="40" as="geometry" />
        </mxCell>
        <mxCell id="s-ZQerYgWQEZpEDtXm9X-70" value="" style="shape=partialRectangle;collapsible=0;dropTarget=0;pointerEvents=0;fillColor=none;top=0;left=0;bottom=0;right=0;points=[[0,0.5],[1,0.5]];portConstraint=eastwest;" vertex="1" parent="s-ZQerYgWQEZpEDtXm9X-67">
          <mxGeometry y="40" width="80" height="40" as="geometry" />
        </mxCell>
        <mxCell id="s-ZQerYgWQEZpEDtXm9X-71" value="&lt;font style=&quot;font-size: 14px&quot;&gt;next&lt;/font&gt;" style="shape=partialRectangle;html=1;whiteSpace=wrap;connectable=0;overflow=hidden;fillColor=none;top=0;left=0;bottom=0;right=0;" vertex="1" parent="s-ZQerYgWQEZpEDtXm9X-70">
          <mxGeometry width="80" height="40" as="geometry" />
        </mxCell>
        <mxCell id="s-ZQerYgWQEZpEDtXm9X-72" value="" style="shape=table;startSize=0;container=1;collapsible=0;childLayout=tableLayout;" vertex="1" parent="1">
          <mxGeometry x="400" y="720" width="80" height="80" as="geometry" />
        </mxCell>
        <mxCell id="s-ZQerYgWQEZpEDtXm9X-73" value="" style="shape=partialRectangle;collapsible=0;dropTarget=0;pointerEvents=0;fillColor=none;top=0;left=0;bottom=0;right=0;points=[[0,0.5],[1,0.5]];portConstraint=eastwest;" vertex="1" parent="s-ZQerYgWQEZpEDtXm9X-72">
          <mxGeometry width="80" height="40" as="geometry" />
        </mxCell>
        <mxCell id="s-ZQerYgWQEZpEDtXm9X-74" value="&lt;font style=&quot;font-size: 14px&quot;&gt;item&lt;/font&gt;" style="shape=partialRectangle;html=1;whiteSpace=wrap;connectable=0;overflow=hidden;fillColor=none;top=0;left=0;bottom=0;right=0;" vertex="1" parent="s-ZQerYgWQEZpEDtXm9X-73">
          <mxGeometry width="80" height="40" as="geometry" />
        </mxCell>
        <mxCell id="s-ZQerYgWQEZpEDtXm9X-75" value="" style="shape=partialRectangle;collapsible=0;dropTarget=0;pointerEvents=0;fillColor=none;top=0;left=0;bottom=0;right=0;points=[[0,0.5],[1,0.5]];portConstraint=eastwest;" vertex="1" parent="s-ZQerYgWQEZpEDtXm9X-72">
          <mxGeometry y="40" width="80" height="40" as="geometry" />
        </mxCell>
        <mxCell id="s-ZQerYgWQEZpEDtXm9X-76" value="&lt;font style=&quot;font-size: 14px&quot;&gt;next&lt;/font&gt;" style="shape=partialRectangle;html=1;whiteSpace=wrap;connectable=0;overflow=hidden;fillColor=none;top=0;left=0;bottom=0;right=0;" vertex="1" parent="s-ZQerYgWQEZpEDtXm9X-75">
          <mxGeometry width="80" height="40" as="geometry" />
        </mxCell>
        <mxCell id="s-ZQerYgWQEZpEDtXm9X-77" value="" style="shape=table;startSize=0;container=1;collapsible=0;childLayout=tableLayout;" vertex="1" parent="1">
          <mxGeometry x="240" y="640" width="80" height="80" as="geometry" />
        </mxCell>
        <mxCell id="s-ZQerYgWQEZpEDtXm9X-78" value="" style="shape=partialRectangle;collapsible=0;dropTarget=0;pointerEvents=0;fillColor=none;top=0;left=0;bottom=0;right=0;points=[[0,0.5],[1,0.5]];portConstraint=eastwest;" vertex="1" parent="s-ZQerYgWQEZpEDtXm9X-77">
          <mxGeometry width="80" height="40" as="geometry" />
        </mxCell>
        <mxCell id="s-ZQerYgWQEZpEDtXm9X-79" value="&lt;font style=&quot;font-size: 14px&quot;&gt;item&lt;/font&gt;" style="shape=partialRectangle;html=1;whiteSpace=wrap;connectable=0;overflow=hidden;fillColor=none;top=0;left=0;bottom=0;right=0;" vertex="1" parent="s-ZQerYgWQEZpEDtXm9X-78">
          <mxGeometry width="80" height="40" as="geometry" />
        </mxCell>
        <mxCell id="s-ZQerYgWQEZpEDtXm9X-80" value="" style="shape=partialRectangle;collapsible=0;dropTarget=0;pointerEvents=0;fillColor=none;top=0;left=0;bottom=0;right=0;points=[[0,0.5],[1,0.5]];portConstraint=eastwest;" vertex="1" parent="s-ZQerYgWQEZpEDtXm9X-77">
          <mxGeometry y="40" width="80" height="40" as="geometry" />
        </mxCell>
        <mxCell id="s-ZQerYgWQEZpEDtXm9X-81" value="&lt;font style=&quot;font-size: 14px&quot;&gt;next&lt;/font&gt;" style="shape=partialRectangle;html=1;whiteSpace=wrap;connectable=0;overflow=hidden;fillColor=none;top=0;left=0;bottom=0;right=0;" vertex="1" parent="s-ZQerYgWQEZpEDtXm9X-80">
          <mxGeometry width="80" height="40" as="geometry" />
        </mxCell>
        <mxCell id="s-ZQerYgWQEZpEDtXm9X-83" style="edgeStyle=orthogonalEdgeStyle;rounded=0;orthogonalLoop=1;jettySize=auto;html=1;exitX=1;exitY=0.5;exitDx=0;exitDy=0;entryX=0;entryY=0.5;entryDx=0;entryDy=0;" edge="1" parent="1" source="s-ZQerYgWQEZpEDtXm9X-80" target="s-ZQerYgWQEZpEDtXm9X-75">
          <mxGeometry relative="1" as="geometry" />
        </mxCell>
        <mxCell id="s-ZQerYgWQEZpEDtXm9X-84" style="edgeStyle=orthogonalEdgeStyle;rounded=0;orthogonalLoop=1;jettySize=auto;html=1;exitX=1;exitY=0.5;exitDx=0;exitDy=0;entryX=0;entryY=0.5;entryDx=0;entryDy=0;" edge="1" parent="1" source="s-ZQerYgWQEZpEDtXm9X-75" target="s-ZQerYgWQEZpEDtXm9X-70">
          <mxGeometry relative="1" as="geometry" />
        </mxCell>
        <mxCell id="s-ZQerYgWQEZpEDtXm9X-85" style="edgeStyle=orthogonalEdgeStyle;rounded=0;orthogonalLoop=1;jettySize=auto;html=1;exitX=1;exitY=0.5;exitDx=0;exitDy=0;entryX=0;entryY=0.5;entryDx=0;entryDy=0;" edge="1" parent="1" source="s-ZQerYgWQEZpEDtXm9X-70" target="s-ZQerYgWQEZpEDtXm9X-65">
          <mxGeometry relative="1" as="geometry" />
        </mxCell>
      </root>
    </mxGraphModel>
  </diagram>
</mxfile>
